<?xml version="1.0" encoding="utf-8"?>
<!-- Generator: Adobe Illustrator 16.0.0, SVG Export Plug-In . SVG Version: 6.00 Build 0)  -->
<!DOCTYPE svg PUBLIC "-//W3C//DTD SVG 1.1//EN" "http://www.w3.org/Graphics/SVG/1.1/DTD/svg11.dtd">
<svg xmlns="http://www.w3.org/2000/svg" xmlns:xlink="http://www.w3.org/1999/xlink" aria-hidden="true" focusable="false" width="20" height="20" style="-ms-transform: rotate(360deg); -webkit-transform: rotate(360deg); transform: rotate(360deg);" preserveAspectRatio="xMidYMid meet" viewBox="0 0 20 20">
    <path d="M18 18V2H2v16h16zM16 5H4V4h12v1zM7 7v3h3c0 1.66-1.34 3-3 3s-3-1.34-3-3 1.34-3 3-3zm1 2V7c1.1 0 2 .9 2 2H8zm8-1h-4V7h4v1zm0 3h-4V9h4v2zm0 2h-4v-1h4v1zm0 3H4v-1h12v1z" fill="#000000"/>
</svg>
